<?xml version="1.0" standalone="no"?>
<!DOCTYPE svg PUBLIC "-//W3C//DTD SVG 20010904//EN"
 "http://www.w3.org/TR/2001/REC-SVG-20010904/DTD/svg10.dtd">
<svg version="1.0" xmlns="http://www.w3.org/2000/svg"
 width="287.000000pt" height="287.000000pt" viewBox="0 0 287.000000 287.000000"
 preserveAspectRatio="xMidYMid meet">
<metadata>
Created by potrace 1.14, written by Peter Selinger 2001-2017
</metadata>
<g transform="translate(0.000000,287.000000) scale(0.100000,-0.100000)"
fill="#000000" stroke="none">
<path d="M12 2258 c-17 -17 -17 -259 0 -276 17 -17 1209 -17 1226 0 17 17 17
259 0 276 -17 17 -1209 17 -1226 0z"/>
<path d="M1631 2261 c-11 -7 -15 -37 -16 -133 0 -68 4 -131 10 -140 9 -17 49
-18 617 -18 568 0 608 1 617 18 11 22 11 241 -1 265 -8 16 -47 17 -611 17
-342 0 -608 -4 -616 -9z"/>
<path d="M15 1844 c-13 -10 -15 -84 -15 -610 0 -360 4 -605 10 -614 8 -13 87
-15 604 -16 326 0 603 3 615 8 l21 7 0 610 c0 477 -3 612 -12 618 -21 13
-1205 10 -1223 -3z m1052 -103 c30 -3 23 -41 -19 -99 -100 -140 -196 -272
-244 -337 -45 -59 -51 -72 -42 -90 10 -18 266 -374 278 -385 26 -25 50 -74 45
-90 -9 -27 -24 -29 -242 -27 -136 1 -196 6 -204 14 -10 10 -13 130 -13 504 0
442 2 492 16 503 12 9 75 12 215 10 109 0 203 -2 210 -3z"/>
<path d="M1632 1844 c-13 -10 -15 -87 -16 -612 -1 -477 2 -604 12 -614 10 -10
138 -13 613 -14 530 0 601 2 613 15 11 13 13 124 12 618 0 331 -5 605 -9 610
-13 13 -1207 10 -1225 -3z m1061 -112 c22 -18 16 -30 -77 -157 -45 -60 -88
-120 -96 -132 -8 -12 -44 -60 -78 -108 -35 -47 -65 -93 -66 -102 -2 -9 70
-116 159 -238 89 -121 164 -228 168 -238 14 -38 -25 -45 -238 -44 -173 1 -202
3 -212 17 -9 13 -12 143 -12 505 0 422 2 490 15 500 23 17 416 14 437 -3z"/>
</g>
</svg>
